<svg width="357" height="333" viewBox="0 0 357 333" fill="none" xmlns="http://www.w3.org/2000/svg">
<g clip-path="url(#clip0_80_157)">
<path d="M289.217 8.98768C289.217 8.98768 226.072 -18.8053 183.091 23.3304C140.109 65.466 123.087 56.4992 106.064 56.053C89.0412 55.6068 30.8413 49.3385 7.09018 119.713C-16.6397 190.088 25.0044 226.402 47.8428 241.658C70.6813 256.893 100.503 267.156 135.164 299.496C164.985 327.332 215.778 351.045 274.89 313.393C334.003 275.741 298.62 222.386 322.817 193.7C347.014 165.015 399.377 61.2163 289.217 8.98768Z" fill="#FFC3D5"/>
</g>
<defs>
<clipPath id="clip0_80_157">
<rect width="356.607" height="332.878" fill="white" transform="matrix(-1 0 0 1 356.629 0)"/>
</clipPath>
</defs>
</svg>
